P3
# 224-color DRAGON Kernel Linux logo
48 80
255
0 0 0  0 0 0  0 0 0  0 0 0  0 0 0  0 0 0
0 0 0  0 0 0  0 0 0  0 0 2  0 0 0  0 0 0
0 0 0  0 0 0  0 0 0  0 0 0  0 0 0  0 0 0
0 0 0  0 0 0  0 0 0  0 0 0  0 0 0  0 0 0
0 0 0  0 0 0  0 0 0  0 0 0  0 0 0  0 0 0
0 0 0  0 0 0  0 0 0  0 0 0  0 0 0  0 0 0
0 0 0  0 0 0  0 0 0  0 0 0  0 0 0  0 0 0
0 0 0  0 0 0  0 0 0  0 0 0  0 0 0  0 0 0
0 0 0  0 0 0  0 0 0  0 0 0  0 0 0  0 0 0
0 0 0  0 0 0  0 0 0  0 0 0  0 0 0  1 0 0
0 0 0  0 0 0  0 0 0  1 0 0  0 0 0  0 0 0
0 0 0  0 0 0  0 1 0  0 0 0  0 0 0  0 0 0
0 0 0  0 0 0  1 1 1  0 0 0  0 0 0  0 0 0
0 0 0  0 0 0  0 0 0  0 0 0  0 0 0  0 0 0
0 0 0  0 0 0  0 0 0  0 0 0  0 0 0  0 0 0
0 0 0  0 0 0  0 0 0  0 0 0  0 0 0  0 0 0
0 0 0  0 0 0  0 0 0  0 0 0  0 0 0  0 0 0
0 0 0  0 0 0  0 0 0  0 0 0  0 0 0  0 0 0
0 0 0  0 0 0  0 0 0  0 2 1  0 0 0  0 0 0
0 0 0  0 0 0  0 0 0  0 0 0  0 0 0  0 2 1
0 0 0  0 2 1  0 2 0  1 1 1  0 0 0  0 0 0
0 0 0  0 0 0  0 0 0  0 0 0  0 0 0  0 0 0
0 0 0  0 0 0  0 0 0  0 0 0  0 0 0  0 0 0
0 0 0  0 0 0  0 0 0  0 0 0  0 0 0  0 0 0
0 0 0  0 0 0  0 0 0  0 0 0  0 0 0  0 0 0
0 0 0  0 0 0  0 0 0  0 0 2  0 0 0  0 0 0
0 0 0  0 0 0  0 0 0  0 0 0  0 1 0  0 0 0
0 0 0  0 0 0  0 0 0  0 0 2  0 0 2  1 2 6
1 4 10  2 6 11  4 5 9  1 2 4  0 0 2  0 0 0
1 1 1  0 0 0  0 0 0  0 0 0  0 0 0  0 0 0
0 0 0  0 0 0  0 0 0  0 0 0  0 0 0  0 0 0
0 0 0  0 0 0  0 0 0  0 0 0  0 0 0  0 0 0
0 0 0  0 0 0  0 0 0  0 0 0  0 0 0  0 0 0
0 0 0  0 0 0  0 0 0  0 0 0  0 0 0  0 0 0
0 0 0  0 0 2  0 0 0  0 0 2  1 1 3  1 2 6
2 2 2  2 0 1  0 0 0  0 0 0  1 1 3  2 6 11
4 22 37  4 27 47  3 19 33  1 5 10  0 1 5  0 0 0
0 0 0  0 0 0  0 0 0  0 0 0  0 0 0  0 0 0
0 0 0  0 0 0  0 0 0  0 0 0  0 0 0  0 0 0
0 0 0  0 0 0  0 0 0  0 0 0  0 0 0  0 0 0
0 0 0  0 0 0  0 0 0  0 0 0  0 0 0  0 0 0
0 0 0  0 0 0  0 0 0  0 0 0  0 0 0  0 0 0
0 0 0  0 0 0  1 1 1  2 8 17  2 15 28  1 18 31
1 10 21  0 1 5  0 0 0  0 0 2  1 4 10  4 27 47
5 47 81  15 56 87  5 37 63  1 10 21  0 1 3  0 0 0
0 0 0  0 0 0  0 0 0  0 0 0  0 0 0  0 0 0
0 0 0  0 0 0  0 0 0  0 0 0  0 0 0  0 0 0
0 0 0  0 0 0  0 0 0  0 0 0  0 0 0  0 0 0
0 0 0  0 0 0  0 0 0  0 0 0  0 0 0  0 0 0
0 0 0  0 0 0  0 0 0  0 0 0  0 0 0  0 0 0
0 0 0  0 0 0  1 2 4  2 16 28  4 26 45  5 39 63
5 33 57  2 16 28  1 1 1  1 1 1  2 16 28  6 50 82
20 75 99  15 56 87  5 47 81  0 15 30  0 1 5  1 2 4
0 1 3  1 1 3  0 0 0  0 0 0  0 0 0  0 0 0
0 0 0  0 0 0  0 0 0  0 0 0  0 0 0  0 0 0
0 0 0  0 0 0  0 0 0  0 0 0  0 0 0  0 0 0
0 0 0  0 0 0  0 0 0  0 0 0  0 0 0  0 0 0
0 0 0  0 0 0  0 0 0  0 0 0  0 0 0  0 0 0
1 0 0  1 1 3  1 2 4  2 16 28  5 46 79  5 38 66
9 60 100  5 37 63  1 7 19  1 3 7  5 32 55  7 70 125
16 60 91  13 84 138  5 46 79  1 18 31  2 13 24  2 15 28
2 8 17  1 2 6  0 0 0  0 0 0  0 0 0  0 0 0
0 0 0  0 0 0  0 0 0  0 0 0  0 0 0  0 0 0
0 0 0  0 0 0  0 0 0  0 0 0  0 0 0  0 0 0
0 0 0  0 0 0  0 0 0  0 0 0  0 0 0  0 0 0
0 0 0  0 0 0  0 0 0  0 0 2  0 0 0  0 0 0
0 0 0  1 1 3  0 2 1  2 13 24  5 46 79  11 61 97
9 62 101  11 63 109  4 30 52  2 16 28  5 53 90  20 96 150
9 60 100  11 90 150  6 50 82  1 36 65  6 44 71  11 45 67
4 22 37  1 3 7  0 2 1  0 0 0  0 0 0  0 0 0
0 0 0  0 0 0  0 0 0  0 0 0  0 0 0  0 0 0
0 0 0  0 0 0  0 0 0  0 0 0  0 0 0  0 0 0
0 0 0  0 0 0  0 0 0  0 0 0  0 0 0  0 0 0
0 0 0  0 0 0  0 0 0  0 0 0  0 0 0  0 0 0
0 0 0  0 0 0  0 0 0  2 6 11  5 33 57  7 70 125
9 52 88  13 84 138  11 63 109  4 38 67  7 70 125  14 97 152
15 77 124  9 114 188  7 70 125  12 65 106  16 60 91  10 49 79
4 27 47  3 7 13  0 2 1  0 0 0  0 0 0  0 0 0
0 0 0  1 1 1  0 0 0  0 0 0  0 0 0  0 0 0
0 0 0  0 0 0  0 0 0  0 0 0  0 0 0  0 0 0
0 0 0  0 0 0  0 0 0  0 0 0  0 0 0  0 0 0
0 0 0  0 0 0  0 0 0  0 0 2  0 0 0  0 0 0
0 0 0  0 0 0  0 0 0  0 1 3  0 15 30  5 53 90
13 84 138  9 52 88  11 90 150  11 90 150  9 114 188  13 103 164
15 88 139  18 146 217  9 114 188  19 78 121  15 77 124  9 60 100
4 26 45  3 7 13  0 2 1  1 3 7  1 2 6  0 1 3
0 0 0  0 0 0  0 0 0  0 0 0  0 0 0  0 0 0
0 0 0  0 0 0  0 0 0  0 0 0  0 0 0  0 0 0
0 0 0  0 0 0  0 0 0  0 0 0  0 0 0  0 0 0
0 0 0  0 0 0  0 0 0  0 0 0  0 0 0  0 0 0
0 0 2  0 0 0  0 0 0  1 1 3  1 4 10  4 27 47
7 70 125  13 84 138  9 59 97  14 132 199  18 146 217  21 121 164
20 75 99  19 181 233  18 146 217  15 77 124  15 100 162  13 66 103
4 24 41  2 15 28  2 13 24  4 19 35  3 14 24  2 4 6
0 2 1  0 0 0  0 0 0  0 0 0  0 0 0  0 0 0
0 0 0  0 0 0  0 0 0  0 0 0  0 0 0  0 0 0
0 0 0  0 0 0  0 0 0  0 0 0  0 0 0  0 0 0
0 0 0  0 0 0  1 0 0  1 1 1  2 0 1  0 0 0
0 0 0  0 0 0  0 0 0  0 1 3  1 1 3  2 13 24
5 47 81  13 103 164  15 100 162  19 78 121  20 197 231  20 160 192
6 21 34  21 204 234  25 127 161  14 132 199  9 114 188  20 75 99
6 42 72  1 36 65  6 42 72  15 56 87  6 29 48  1 10 21
1 2 6  0 0 0  1 1 1  0 0 0  0 0 0  0 0 0
0 0 0  0 0 0  0 0 0  0 0 0  0 0 0  0 0 0
0 0 0  0 0 0  0 0 0  0 0 0  0 0 0  0 0 0
0 0 0  0 0 0  0 0 0  0 0 0  0 0 0  0 0 0
2 0 1  1 2 4  2 1 5  1 10 21  4 26 45  5 47 81
7 70 125  10 128 195  19 181 233  22 141 171  27 113 152  29 174 203
3 6 12  27 146 180  11 64 94  20 168 215  18 146 217  13 68 108
7 70 125  7 70 125  19 78 121  15 56 87  4 38 67  1 10 21
1 2 6  0 0 0  0 0 0  0 0 0  0 0 0  0 0 0
0 0 0  0 0 0  0 0 0  0 0 0  0 0 0  0 0 0
0 0 0  0 0 0  0 0 0  0 0 0  0 0 0  0 0 0
0 0 0  0 0 0  0 0 0  0 0 0  1 0 0  0 2 1
3 1 6  1 7 19  5 32 55  9 60 100  15 100 162  14 132 199
18 146 217  25 151 208  25 165 197  25 165 197  20 75 99  20 86 121
7 24 39  13 57 84  5 32 47  20 160 192  21 190 220  15 94 143
18 146 217  9 114 188  20 75 99  7 70 125  4 38 67  3 7 13
0 1 3  0 0 0  0 0 0  0 0 0  0 0 0  0 0 0
0 0 0  0 0 0  0 0 0  0 0 0  0 0 0  0 0 0
0 0 0  0 0 0  0 0 0  0 0 0  0 0 0  0 0 0
0 0 0  0 0 0  0 0 0  0 0 0  0 0 0  2 3 4
1 10 21  4 38 67  13 84 138  17 131 194  25 126 171  20 86 121
20 75 99  20 86 121  20 86 121  27 113 152  20 86 121  7 24 39
6 4 4  4 5 6  6 5 8  20 75 99  25 183 213  20 75 99
15 210 241  25 144 192  15 90 146  13 84 138  4 27 47  1 2 6
0 0 0  0 0 0  0 0 0  0 0 0  0 0 0  0 0 0
0 0 0  0 0 0  0 0 0  0 0 0  0 0 0  0 0 0
0 0 0  0 0 0  0 0 0  0 0 0  0 0 0  1 1 1
0 0 0  1 0 0  0 0 0  0 0 0  0 0 0  3 4 6
4 29 49  7 70 125  20 117 175  20 86 121  27 113 152  20 86 121
20 75 99  20 75 99  20 86 121  13 57 84  5 32 47  20 86 121
20 75 99  6 5 8  4 3 4  4 5 6  20 75 99  6 5 8
29 174 203  20 86 121  14 132 199  13 84 138  4 22 37  0 0 2
0 0 0  0 0 0  0 0 0  0 0 0  0 0 0  0 0 0
0 0 0  0 0 0  0 0 0  0 0 0  0 0 0  0 0 0
0 0 0  0 0 0  0 0 0  0 0 0  0 0 0  0 0 0
0 0 0  0 0 0  0 2 1  2 2 4  1 3 7  4 22 37
11 63 109  21 95 149  27 113 152  27 146 180  20 160 192  21 193 218
18 212 241  15 217 245  15 210 241  15 210 241  27 146 180  7 24 39
20 86 121  20 86 121  2 3 4  6 4 7  4 2 3  4 5 6
7 24 39  4 12 21  18 158 206  11 90 150  3 19 33  0 0 0
1 1 1  0 0 0  0 0 0  0 0 0  0 0 0  0 0 0
0 0 0  0 0 0  0 0 0  0 0 0  0 0 0  0 0 0
0 0 0  0 0 0  0 0 0  0 0 0  0 0 0  0 0 2
1 1 1  0 2 1  1 2 6  2 17 30  4 38 67  7 70 125
14 132 199  23 187 221  23 200 231  23 200 231  29 174 203  27 146 180
25 127 161  27 113 152  22 141 171  19 181 233  25 166 206  27 113 152
22 141 171  22 141 171  4 3 4  1 1 1  1 1 1  6 4 7
4 12 21  6 4 4  22 148 198  9 114 188  5 33 57  1 2 6
0 0 0  0 0 0  0 0 0  0 0 0  0 0 0  0 0 0
0 0 0  0 0 0  0 0 0  0 0 0  0 0 0  0 0 0
1 1 1  0 0 0  0 0 0  0 0 0  0 0 0  0 0 0
0 1 5  2 15 28  5 41 68  7 70 125  10 128 195  19 176 224
25 165 197  27 113 152  11 54 80  5 21 31  6 4 7  11 64 94
20 160 192  21 204 234  25 166 206  27 113 152  20 117 175  19 135 198
20 86 121  13 57 84  6 4 7  2 2 2  2 1 5  5 6 8
22 141 171  20 75 99  20 86 121  18 146 217  7 70 125  2 17 30
2 1 5  1 1 1  1 0 0  0 0 0  0 0 0  0 0 0
0 0 0  0 0 0  0 0 0  0 0 0  0 0 0  0 0 0
0 0 0  0 0 0  0 0 0  0 0 0  1 1 3  4 2 6
4 19 35  9 59 97  9 114 188  25 151 208  27 146 180  13 57 84
1 3 5  6 4 7  4 4 3  3 8 13  25 127 161  21 204 234
21 193 218  15 102 143  13 68 108  13 103 164  15 100 162  13 103 164
14 132 199  19 181 233  20 160 192  7 24 39  4 5 6  3 1 6
15 102 143  25 183 213  13 57 84  27 146 180  14 132 199  9 60 100
2 16 28  1 2 4  1 1 1  0 0 0  0 0 0  0 0 0
0 0 0  0 0 0  0 0 0  0 0 0  0 0 0  0 0 0
0 0 0  0 0 0  0 0 0  0 0 0  1 2 6  3 19 33
5 53 90  16 114 180  25 126 171  11 45 67  4 4 3  1 4 10
4 5 6  2 2 2  3 9 16  22 141 171  18 212 241  25 127 161
5 21 31  18 87 131  14 132 199  7 70 125  5 46 79  6 42 72
7 70 125  17 105 152  21 193 218  27 113 152  4 3 6  2 4 6
7 24 39  6 21 34  20 86 121  5 32 47  25 166 206  14 132 199
11 63 109  4 24 41  1 5 10  0 0 2  0 0 0  0 0 0
0 0 0  0 0 0  0 0 0  0 0 0  0 0 0  0 0 0
0 0 0  0 0 0  0 0 0  0 2 1  2 8 17  5 37 63
21 81 125  19 78 121  20 75 99  22 141 171  25 165 197  27 113 152
4 12 21  6 4 4  25 127 161  23 195 228  25 127 161  21 136 182
16 60 91  14 132 199  13 84 138  5 33 57  4 22 37  4 29 49
5 46 79  11 90 150  24 135 188  15 102 143  6 5 8  11 45 67
29 174 203  15 102 143  6 5 8  4 4 3  11 45 67  25 144 192
14 132 199  9 62 101  3 16 27  2 1 5  0 0 0  0 0 0
0 0 0  0 0 0  0 0 0  0 0 0  0 0 0  0 0 0
0 0 0  0 0 0  0 0 0  0 2 1  1 10 21  5 39 63
16 60 91  16 114 180  19 181 233  15 217 245  27 146 180  5 21 31
4 5 6  20 75 99  25 183 213  27 113 152  18 146 217  16 114 180
13 84 138  7 70 125  1 36 65  5 33 57  5 41 71  9 62 101
7 70 125  16 81 129  18 146 217  21 204 234  5 31 51  5 21 31
27 146 180  21 193 218  15 102 143  6 4 7  4 4 3  3 6 12
15 79 119  11 90 150  4 30 52  2 1 5  0 0 0  0 0 0
0 0 0  0 0 0  0 0 0  0 0 0  0 0 0  0 0 0
0 0 0  0 0 0  0 0 0  2 2 2  2 8 17  6 29 48
9 52 88  15 100 162  19 181 233  27 146 180  3 9 16  6 4 4
6 4 7  25 165 197  27 113 152  19 181 233  9 114 188  7 70 125
5 41 71  5 37 63  5 46 79  13 84 138  9 114 188  16 81 129
17 131 194  14 132 199  22 155 202  15 217 245  16 60 91  22 141 171
20 86 121  29 174 203  20 197 231  20 86 121  11 54 80  3 8 13
16 60 91  13 103 164  5 35 62  2 1 5  0 0 0  0 0 0
0 0 0  0 0 0  0 0 0  0 0 0  0 0 0  0 0 0
0 0 0  0 0 0  0 0 0  1 1 1  1 2 6  2 13 24
4 38 67  13 103 164  20 168 215  5 32 47  4 3 4  4 4 3
5 39 63  27 146 180  27 113 152  25 165 197  18 146 217  6 76 123
5 33 57  4 38 67  11 90 150  20 119 182  20 122 180  23 195 228
25 127 161  25 127 161  27 113 152  23 195 228  20 75 99  20 86 121
23 200 231  20 75 99  19 176 224  19 176 224  23 195 228  11 54 80
25 151 208  11 90 150  4 24 41  1 2 4  0 0 0  0 0 0
0 0 0  0 0 0  0 0 0  0 0 0  0 0 0  0 0 0
0 0 0  0 0 0  0 0 0  1 1 1  1 1 1  2 8 17
5 53 90  18 146 217  15 102 143  6 4 4  6 5 8  4 2 6
20 86 121  27 113 152  6 4 4  11 45 67  27 146 180  19 100 159
9 60 100  7 70 125  19 135 198  3 7 13  6 5 8  20 75 99
27 146 180  25 165 197  20 75 99  11 45 67  3 16 27  20 86 121
15 210 241  19 135 198  19 100 159  18 146 217  18 146 217  15 77 124
9 114 188  5 53 90  1 10 21  1 1 3  0 0 0  0 0 0
0 0 0  0 0 0  0 0 0  0 0 0  0 0 0  0 0 0
0 0 0  0 0 0  0 0 0  0 0 0  1 1 1  0 15 30
7 70 125  19 135 198  3 14 24  27 113 152  11 45 67  4 3 6
27 113 152  15 102 143  4 3 4  6 5 8  4 5 6  25 151 208
13 103 164  9 114 188  25 183 213  4 11 20  20 75 99  29 174 203
25 165 197  27 113 152  29 174 203  22 171 205  21 121 164  18 83 135
21 95 149  9 114 188  12 65 106  9 114 188  9 114 188  7 70 125
7 70 125  5 35 62  1 4 10  1 1 1  0 0 0  0 0 0
0 0 0  0 0 0  0 0 0  0 0 0  0 0 0  0 0 0
1 0 0  0 0 2  1 0 0  0 0 0  0 2 1  4 29 49
15 100 162  19 100 159  20 75 99  21 193 218  3 9 16  2 1 5
27 113 152  25 127 161  11 45 67  11 45 67  6 4 7  23 162 199
18 146 217  18 146 217  20 75 99  4 3 4  3 14 24  5 21 31
29 174 203  19 181 233  20 119 182  18 120 176  18 146 217  9 114 188
13 84 138  7 70 125  13 84 138  5 53 90  15 100 162  13 84 138
5 47 81  4 24 41  1 2 4  0 2 1  0 0 0  0 0 0
0 0 0  0 0 0  0 0 0  0 0 0  0 0 0  0 0 0
0 0 0  0 0 0  1 0 0  0 0 0  1 2 4  5 33 57
11 90 150  13 66 103  22 171 205  21 193 218  4 2 3  4 3 4
20 75 99  29 174 203  20 86 121  27 113 152  6 4 4  15 102 143
15 210 241  15 210 241  15 102 143  4 2 3  7 24 39  27 113 152
20 75 99  18 146 217  9 114 188  12 68 111  5 53 90  5 47 81
5 33 57  4 30 52  5 53 90  7 70 125  10 49 79  13 84 138
5 53 90  4 22 37  2 4 6  0 0 2  0 0 0  0 0 0
0 0 0  0 0 0  0 0 0  0 0 0  0 0 0  0 0 0
0 1 0  0 0 0  1 1 1  0 0 0  1 2 6  5 32 55
7 70 125  10 58 88  19 181 233  21 178 208  6 4 7  6 4 4
6 21 34  21 193 218  15 102 143  25 183 213  7 24 39  4 11 20
20 160 192  15 217 245  22 141 171  11 54 80  20 75 99  23 200 231
25 127 161  13 85 135  11 90 150  5 53 90  4 26 45  2 15 28
3 7 13  1 5 10  4 19 35  5 46 79  11 63 109  6 42 72
5 53 90  4 27 47  3 7 13  0 2 0  0 0 0  0 0 0
0 0 0  0 0 0  0 0 0  0 0 0  0 0 0  0 0 0
0 0 0  0 0 0  0 0 0  0 0 0  0 2 1  4 22 37
5 46 79  9 60 100  14 132 199  20 168 215  6 4 7  2 2 2
4 4 3  25 127 161  21 193 218  25 165 197  27 146 180  6 5 8
5 21 31  27 113 152  13 57 84  23 187 221  22 171 205  21 136 182
19 181 233  9 59 97  13 85 135  1 36 65  2 13 24  1 5 10
1 1 3  1 1 3  3 1 6  1 18 31  5 41 71  5 47 81
5 41 68  4 38 67  3 19 33  1 2 6  0 0 0  0 0 0
0 0 0  0 0 0  0 0 0  0 0 0  0 0 0  0 0 0
0 0 0  1 0 0  0 1 0  0 0 0  0 2 1  2 8 17
2 17 30  5 38 66  15 100 162  18 146 217  4 5 6  5 21 31
5 21 31  3 16 27  29 174 203  25 183 213  25 183 213  25 127 161
6 5 8  6 5 8  20 75 99  20 197 231  19 176 224  16 81 129
18 146 217  13 84 138  11 63 109  5 33 57  1 4 9  1 1 1
1 1 1  0 0 0  1 1 3  1 3 7  3 19 33  5 38 66
5 38 66  5 37 63  4 24 41  2 6 11  1 0 0  0 0 0
0 0 0  0 0 0  0 0 0  0 0 0  0 0 0  0 0 0
0 0 0  0 0 2  0 0 0  0 0 0  1 1 1  2 2 2
2 3 4  2 15 28  7 70 125  18 146 217  3 14 24  22 141 171
15 102 143  6 4 7  11 45 67  21 178 208  20 197 231  25 183 213
22 141 171  5 21 31  27 113 152  18 146 217  14 132 199  15 77 124
13 103 164  12 74 116  9 52 88  4 26 45  1 2 6  0 0 0
0 0 0  0 0 2  0 0 0  0 2 1  1 5 10  3 19 33
4 30 52  4 27 47  3 19 33  3 8 13  0 0 0  0 0 0
0 0 0  0 0 0  0 0 0  0 0 0  0 0 0  0 0 0
0 0 0  0 0 0  0 0 0  0 0 0  0 0 0  0 0 0
1 1 1  3 4 6  5 53 90  9 114 188  10 49 79  21 178 208
20 160 192  6 4 4  4 5 6  7 24 39  20 160 192  21 193 218
23 200 231  25 183 213  27 113 152  15 100 162  13 103 164  15 72 117
6 76 123  15 56 87  5 37 63  3 19 33  2 1 5  1 0 0
0 0 0  0 0 0  0 0 0  0 0 0  2 3 4  2 6 11
2 13 24  2 16 28  1 10 21  1 2 6  0 0 0  0 0 0
0 0 0  0 0 0  0 0 0  0 0 0  0 0 0  0 0 0
0 0 0  0 0 0  0 0 0  0 0 0  0 0 0  0 0 0
0 0 0  2 2 4  5 35 62  11 90 150  11 63 109  19 176 224
18 212 241  20 75 99  4 5 6  5 21 31  3 8 13  20 86 121
25 183 213  15 217 245  15 210 241  18 146 217  9 114 188  15 100 162
13 84 138  9 60 100  6 42 72  4 29 49  2 16 28  1 10 21
1 10 21  2 8 17  1 4 9  2 1 5  2 2 4  1 1 1
2 2 2  1 4 9  1 2 4  0 0 0  0 0 0  0 0 0
0 0 0  0 0 0  0 0 0  0 0 0  0 0 0  0 0 0
0 0 0  0 0 0  0 0 0  0 0 0  0 0 0  0 0 0
0 0 0  1 2 4  1 18 31  9 59 97  12 69 113  18 146 217
20 160 192  29 174 203  6 21 34  27 146 180  13 57 84  6 5 8
3 9 16  20 75 99  22 141 171  21 178 208  21 190 220  19 181 233
19 176 224  14 132 199  9 114 188  11 90 150  11 63 109  5 53 90
5 46 79  5 33 57  4 22 37  1 7 19  2 2 4  1 1 1
0 0 0  1 1 1  0 0 0  0 0 0  1 0 0  0 0 0
0 0 0  1 0 0  0 0 0  0 0 0  0 0 0  0 0 0
0 0 0  0 0 0  0 0 0  0 0 0  0 0 0  0 0 2
0 0 0  1 1 1  2 8 17  1 36 65  11 90 150  25 144 192
27 113 152  20 160 192  22 141 171  27 146 180  21 193 218  11 45 67
4 2 6  6 4 4  4 4 3  4 5 6  7 24 39  20 75 99
25 127 161  27 146 180  25 144 192  24 135 188  20 117 175  20 96 150
21 81 125  13 68 108  16 60 91  5 46 79  4 22 37  1 7 19
2 1 5  1 1 1  0 1 3  0 0 0  1 0 0  0 0 0
0 0 0  0 0 0  0 0 0  0 0 0  0 0 0  0 0 0
0 0 0  1 1 1  0 0 0  0 0 0  0 0 0  0 0 2
0 0 0  1 1 1  1 2 4  4 30 52  13 103 164  21 121 164
20 86 121  8 50 76  23 195 228  25 127 161  20 197 231  21 178 208
11 45 67  6 4 7  3 4 6  5 32 47  5 32 47  6 4 7
4 5 6  4 2 3  7 24 39  25 127 161  20 160 192  23 150 203
19 135 198  18 146 217  10 128 195  9 114 188  11 90 150  11 63 109
4 38 67  4 19 35  2 8 17  2 2 2  0 1 3  0 0 2
0 0 0  0 1 0  0 0 0  0 0 0  0 0 0  0 0 0
0 0 0  0 0 0  0 0 0  1 0 0  0 0 2  0 0 0
0 0 0  0 0 0  1 1 3  4 27 47  13 103 164  15 107 161
5 32 47  6 4 4  20 86 121  23 200 231  20 119 182  18 146 217
19 176 224  13 57 84  6 5 8  11 45 67  29 174 203  22 141 171
5 39 63  6 4 7  4 3 4  11 64 94  20 160 192  23 187 221
27 146 180  21 81 125  21 81 125  16 112 165  19 135 198  18 146 217
9 114 188  13 84 138  5 53 90  4 24 41  2 8 17  2 1 5
0 0 2  0 2 0  0 0 0  0 0 0  0 0 0  0 0 0
0 0 0  0 0 0  0 0 0  0 0 0  0 0 0  0 0 0
0 0 0  0 0 0  1 1 1  4 30 52  9 114 188  25 142 187
6 4 7  1 3 5  6 4 4  15 102 143  18 146 217  11 90 150
14 132 199  19 181 233  15 102 143  4 5 6  20 86 121  18 212 241
21 204 234  23 162 199  25 127 161  20 86 121  13 57 84  11 64 94
21 156 200  19 181 233  25 165 197  27 113 152  7 24 39  11 45 67
20 118 167  25 151 208  18 146 217  11 90 150  5 47 81  3 19 33
1 2 6  1 1 1  0 0 0  0 0 0  0 0 0  0 0 0
0 0 0  0 0 0  0 0 0  0 0 0  0 0 0  0 0 0
0 0 0  0 0 0  0 0 2  5 33 57  13 103 164  21 178 208
4 18 30  4 3 4  4 5 6  20 86 121  18 146 217  11 90 150
11 90 150  18 146 217  19 181 233  22 141 171  5 33 57  27 113 152
19 176 224  14 132 199  10 128 195  14 132 199  14 132 199  9 114 188
21 95 149  19 98 147  24 138 186  23 173 208  21 190 220  27 113 152
5 21 31  6 21 34  18 87 131  18 146 217  9 114 188  9 60 100
4 26 45  3 6 12  0 0 0  0 0 0  0 0 0  0 0 2
0 0 0  0 0 0  0 0 0  0 0 0  0 0 0  0 0 0
0 0 0  0 0 0  1 4 9  5 35 62  15 100 162  22 141 171
20 86 121  3 1 6  11 45 67  25 126 171  18 146 217  16 114 180
21 81 125  21 81 125  15 100 162  17 131 194  25 126 171  15 88 139
9 62 101  12 69 113  5 47 81  5 46 79  5 53 90  11 63 109
7 70 125  14 97 152  15 77 124  20 117 175  25 144 192  15 210 241
29 174 203  11 45 67  5 21 31  11 54 80  18 87 131  15 100 162
6 50 82  2 17 30  1 2 4  1 1 1  0 0 0  0 1 0
0 0 0  0 0 0  0 0 0  0 0 0  0 0 0  0 0 0
0 0 0  0 0 0  2 2 4  5 32 55  9 114 188  15 79 119
16 60 91  4 4 3  20 86 121  23 200 231  19 181 233  21 95 149
14 132 199  10 128 195  9 114 188  13 103 164  13 103 164  15 100 162
11 63 109  5 33 57  3 16 27  1 4 10  2 6 11  2 13 24
4 26 45  5 46 79  12 69 113  15 72 117  16 114 180  27 113 152
15 210 241  21 193 218  13 57 84  15 102 143  25 165 197  20 86 121
11 53 87  4 24 41  2 3 4  1 1 1  0 0 0  0 0 2
0 0 0  0 0 0  0 0 0  0 0 0  0 0 0  0 0 0
0 0 0  0 0 0  0 0 0  4 19 35  13 84 138  19 135 198
3 14 24  6 4 4  25 127 161  23 200 231  20 75 99  29 174 203
19 181 233  20 119 182  18 83 135  13 68 108  11 53 87  4 38 67
4 30 52  3 19 33  2 6 11  1 1 1  0 0 0  0 0 0
1 2 6  0 15 30  4 26 45  5 53 90  9 114 188  15 90 146
25 127 161  15 217 245  21 193 218  5 32 47  25 127 161  19 181 233
11 90 150  4 30 51  1 4 9  2 0 1  0 0 2  0 0 0
0 0 0  0 0 0  0 0 0  0 0 0  0 0 0  0 0 0
0 0 0  0 0 0  0 0 0  2 8 17  6 50 82  18 146 217
27 113 152  4 4 3  15 102 143  22 141 171  11 45 67  27 146 180
20 86 121  15 100 162  13 84 138  9 52 88  4 28 47  1 10 21
1 4 10  1 2 6  1 1 3  1 1 1  0 0 0  0 0 2
1 1 1  0 0 0  1 3 5  4 27 47  11 90 150  16 114 180
13 57 84  20 160 192  15 217 245  20 160 192  3 9 16  25 142 187
10 128 195  5 53 90  1 7 19  1 1 1  1 2 4  0 0 0
0 0 0  0 0 0  0 0 0  0 0 0  0 0 0  0 0 0
0 0 0  0 0 0  0 0 0  1 1 1  4 19 35  13 84 138
18 146 217  20 75 99  3 8 13  6 4 4  6 4 4  11 54 80
21 204 234  19 181 233  9 114 188  9 62 101  5 35 62  2 13 24
1 4 9  2 2 2  1 1 1  0 0 0  0 0 0  0 0 0
0 0 0  0 0 0  0 2 1  1 10 21  11 63 109  17 124 182
25 127 161  11 45 67  15 210 241  15 217 245  16 60 91  11 45 67
25 151 208  11 90 150  4 26 45  1 1 1  0 2 1  0 0 0
0 0 0  0 0 0  0 0 0  0 0 0  0 0 0  0 0 0
0 0 0  0 0 0  0 0 0  0 0 0  2 8 17  5 35 62
13 103 164  19 176 224  20 75 99  6 5 8  4 3 4  20 86 121
20 160 192  18 130 185  18 102 160  13 85 135  5 53 90  4 29 49
2 6 11  1 2 6  0 0 0  0 0 0  0 0 0  0 0 2
0 0 0  0 0 0  0 0 0  2 8 17  5 53 90  18 146 217
25 127 161  5 6 8  27 146 180  15 217 245  22 141 171  4 4 3
18 87 131  14 132 199  5 47 81  3 7 13  0 0 2  0 0 0
0 0 0  0 0 0  0 0 0  0 0 0  0 0 0  0 0 0
0 1 0  0 0 0  0 0 0  1 1 3  1 1 3  3 11 19
5 53 90  13 103 164  25 127 161  11 45 67  3 11 19  3 9 16
20 111 154  15 100 162  10 73 122  11 53 87  9 48 75  5 38 66
2 13 24  2 3 4  0 2 1  1 1 1  1 0 0  0 0 0
0 0 0  1 0 0  2 0 1  2 8 17  5 47 81  14 132 199
20 75 99  15 102 143  20 86 121  15 217 245  22 171 205  6 21 34
6 5 8  19 135 198  7 70 125  2 16 28  1 1 3  0 0 0
0 0 0  0 0 0  0 0 2  0 0 0  0 0 0  0 0 0
0 0 0  0 0 0  1 1 1  1 1 1  1 3 7  2 8 17
4 27 47  12 68 111  9 114 188  18 146 217  20 168 215  16 112 165
14 132 199  13 103 164  7 70 125  12 69 113  6 50 82  4 26 45
0 15 30  1 2 4  0 1 3  1 1 1  0 0 0  0 0 0
0 0 0  0 0 0  1 1 1  1 10 21  5 53 90  21 95 149
22 171 205  27 146 180  11 54 80  15 210 241  21 178 208  22 141 171
20 75 99  21 95 149  13 103 164  4 30 52  0 0 2  0 1 0
0 0 0  0 0 0  0 0 2  0 0 0  0 0 0  0 0 0
0 0 0  0 1 0  0 1 5  2 13 24  4 29 49  5 47 81
7 70 125  13 84 138  13 103 164  9 114 188  9 114 188  13 103 164
7 70 125  5 46 79  4 30 52  4 30 52  4 29 49  4 19 35
4 12 21  1 1 3  0 0 0  0 0 0  0 0 0  1 1 1
0 0 0  0 0 0  2 3 4  4 26 45  7 70 125  18 146 217
23 195 228  11 45 67  11 54 80  18 212 241  22 171 205  22 141 171
20 197 231  11 54 80  15 100 162  6 42 72  3 7 13  0 0 0
0 2 1  0 0 0  0 0 0  0 0 0  0 0 0  0 0 0
1 1 1  4 5 6  4 24 41  5 53 90  21 95 149  20 119 182
18 146 217  19 176 224  23 164 207  25 126 171  18 146 217  14 132 199
11 90 150  11 63 109  5 41 71  4 22 37  2 16 28  3 9 16
2 3 6  1 1 3  1 1 1  0 2 0  1 1 1  0 1 3
1 2 6  3 7 13  4 26 45  11 63 109  17 131 194  25 166 206
20 75 99  6 5 8  20 75 99  15 217 245  27 146 180  15 102 143
19 181 233  13 103 164  12 68 111  5 47 81  4 12 21  0 2 1
0 0 0  0 0 0  0 0 0  0 0 0  0 0 0  0 0 0
1 2 6  4 26 45  7 70 125  14 132 199  25 166 206  27 146 180
20 75 99  11 45 67  20 86 121  27 146 180  20 75 99  25 165 197
27 146 180  16 114 180  9 114 188  7 70 125  5 47 81  4 30 52
4 19 35  2 15 28  2 16 28  2 16 28  0 15 30  3 19 33
4 29 49  5 46 79  7 70 125  14 132 199  27 146 180  27 113 152
27 113 152  20 75 99  25 127 161  15 217 245  20 86 121  15 102 143
18 146 217  11 90 150  6 42 72  5 35 62  2 13 24  0 2 1
0 1 0  0 0 0  0 0 0  0 0 0  2 0 1  3 4 6
4 26 45  7 70 125  24 135 188  27 113 152  11 45 67  4 5 6
6 4 4  4 2 3  6 4 4  6 4 4  5 21 31  4 12 21
25 127 161  20 75 99  22 141 171  19 176 224  21 95 149  13 103 164
9 74 119  9 59 97  9 59 97  11 63 109  11 63 109  11 63 109
16 81 129  9 114 188  25 126 171  25 126 171  27 113 152  20 75 99
7 24 39  5 21 31  21 193 218  21 193 218  3 16 27  18 115 164
10 128 195  5 53 90  4 29 49  2 17 30  4 5 9  1 1 1
0 0 0  0 0 0  0 0 0  0 0 0  1 1 1  4 24 41
7 70 125  18 146 217  27 146 180  20 75 99  7 24 39  27 113 152
22 171 205  23 195 228  23 200 231  21 193 218  20 86 121  6 5 8
4 5 6  7 24 39  3 9 16  22 141 171  20 160 192  21 95 149
18 146 217  14 132 199  21 106 157  15 79 119  14 132 199  18 146 217
20 111 154  19 98 147  22 171 205  25 165 197  13 57 84  6 5 8
6 5 8  22 141 171  15 217 245  15 102 143  4 2 3  24 135 188
13 103 164  4 30 51  1 10 21  2 6 11  2 3 4  1 1 1
0 0 0  0 0 0  2 2 4  1 1 1  3 9 16  5 53 90
20 119 182  27 113 152  6 5 8  20 75 99  20 168 215  18 146 217
14 132 199  23 109 157  27 113 152  15 102 143  11 45 67  6 4 4
2 1 5  4 2 3  4 3 4  6 4 7  25 127 161  27 113 152
13 57 84  25 166 206  15 210 241  25 127 161  11 45 67  20 160 192
18 212 241  20 75 99  6 5 8  20 75 99  25 127 161  11 45 67
15 102 143  18 212 241  20 160 192  3 7 13  4 12 21  18 146 217
7 70 125  2 13 24  0 0 2  0 0 0  1 0 0  0 0 0
0 0 0  0 0 0  0 1 3  1 2 6  4 26 45  11 90 150
27 146 180  16 60 91  20 75 99  19 176 224  9 114 188  9 60 100
5 41 71  9 60 100  11 90 150  10 128 195  25 151 208  20 160 192
22 141 171  22 141 171  25 127 161  20 86 121  6 5 8  20 75 99
4 3 4  4 12 21  25 127 161  23 200 231  13 57 84  4 5 6
15 102 143  27 146 180  4 4 3  6 5 8  3 8 13  27 113 152
18 212 241  29 174 203  7 24 39  6 4 7  20 86 121  18 146 217
5 47 81  4 5 9  0 0 0  0 0 0  0 0 0  1 0 0
0 0 0  0 0 0  1 1 1  1 5 10  5 47 81  14 132 199
25 127 161  4 11 20  18 158 206  9 114 188  5 41 71  1 10 21
2 8 17  3 19 33  4 38 67  12 69 113  9 114 188  21 136 182
22 141 171  27 146 180  15 102 143  11 45 67  4 3 6  4 5 6
4 2 6  4 2 6  6 4 4  20 86 121  20 86 121  4 4 3
4 5 6  11 45 67  6 4 4  11 54 80  20 160 192  18 212 241
25 165 197  11 54 80  4 12 21  4 6 9  25 144 192  13 103 164
4 26 45  2 2 2  0 0 0  0 0 0  0 0 0  0 0 0
0 0 0  0 0 0  1 1 1  1 18 31  7 70 125  18 146 217
5 32 47  20 86 121  18 146 217  11 63 109  3 11 19  0 1 3
0 1 3  2 2 4  3 7 13  2 17 30  6 42 72  7 70 125
15 100 162  19 100 159  15 79 119  7 24 39  6 4 4  4 2 3
1 1 1  0 1 3  2 3 4  6 4 4  4 2 3  4 3 4
3 9 16  20 75 99  20 160 192  18 212 241  23 200 231  27 113 152
20 75 99  21 178 208  5 32 47  20 75 99  18 146 217  9 59 97
1 10 21  1 1 1  0 1 0  0 0 0  0 0 0  0 0 0
0 0 0  0 0 0  2 2 2  4 29 49  9 114 188  21 136 182
6 4 4  22 141 171  10 128 195  1 36 65  1 3 7  0 0 0
0 0 0  1 1 1  0 2 1  2 2 2  1 10 21  4 30 51
11 63 109  13 103 164  14 132 199  18 146 217  25 151 208  21 138 189
21 121 164  20 111 154  20 111 154  21 121 164  22 141 171  21 156 200
23 187 221  21 204 234  25 183 213  25 127 161  16 60 91  16 112 165
19 181 233  25 183 213  5 32 55  19 135 198  11 90 150  4 27 47
1 1 3  1 1 1  0 0 0  0 0 0  0 0 0  0 0 0
0 1 0  1 0 0  1 3 7  5 33 57  9 114 188  18 87 131
5 32 47  25 144 192  9 114 188  5 32 55  2 2 2  0 0 0
0 0 2  0 0 0  0 0 0  2 0 1  1 2 4  3 7 13
2 17 30  5 33 57  5 47 81  9 74 119  11 90 150  13 103 164
9 114 188  10 128 195  10 128 195  10 128 195  10 128 195  16 114 180
23 109 157  20 86 121  15 77 124  15 100 162  9 114 188  10 128 195
18 146 217  18 87 131  13 103 164  15 100 162  5 41 71  3 7 13
0 0 0  0 0 0  0 0 0  1 1 1  0 0 0  1 1 1
0 0 0  0 0 0  1 2 6  5 32 55  11 90 150  27 146 180
5 32 47  21 136 182  10 128 195  5 35 62  2 3 4  0 0 2
0 2 1  0 0 0  0 0 0  2 2 2  2 2 2  1 1 1
1 1 1  1 2 4  1 4 9  1 10 21  2 13 24  4 24 41
4 30 52  5 32 55  1 36 65  1 36 65  1 36 65  5 41 71
5 53 90  9 60 100  9 62 101  9 62 101  9 59 97  7 70 125
18 87 131  12 68 111  7 70 125  5 41 68  1 7 19  0 2 1
0 0 0  0 0 0  0 0 0  0 0 0  0 0 0  0 0 0
1 0 0  0 0 0  2 1 5  4 24 41  13 84 138  20 168 215
5 32 47  15 102 143  19 176 224  11 63 109  3 14 24  1 1 1
1 1 1  0 0 0  0 0 0  0 2 1  0 0 0  0 0 0
1 1 1  1 1 1  0 0 0  0 0 0  2 2 4  2 2 2
1 2 4  2 2 4  1 1 3  1 1 1  1 2 6  2 8 17
2 16 28  4 19 35  3 19 33  3 19 33  4 30 52  15 56 87
15 56 87  9 59 97  5 35 62  1 10 21  2 2 2  1 1 1
0 0 0  0 0 0  0 0 0  0 0 0  0 0 0  0 0 0
0 0 0  0 0 0  2 2 2  2 8 17  9 62 101  18 146 217
8 50 76  3 14 24  22 171 205  10 128 195  5 53 90  2 15 28
2 3 6  0 0 0  1 1 1  0 0 0  0 0 0  1 1 1
1 4 9  1 7 19  2 13 24  2 13 24  1 7 19  1 2 4
0 0 0  0 0 2  1 1 3  1 0 3  1 1 1  2 2 2
2 0 1  0 2 1  0 2 1  1 10 21  5 32 55  15 56 87
5 53 90  5 33 57  2 13 24  1 1 3  0 1 0  0 0 0
0 0 0  1 1 1  0 0 2  0 0 0  0 0 0  0 0 0
0 0 0  0 0 0  0 0 2  1 3 7  1 36 65  14 132 199
27 113 152  4 3 4  8 50 76  23 173 208  14 132 199  7 70 125
4 38 67  4 22 37  2 13 24  2 15 28  3 19 33  4 22 37
4 30 52  4 38 67  5 41 71  11 45 67  4 18 30  2 6 11
1 1 3  1 2 6  1 1 3  0 0 2  1 2 4  2 6 11
3 11 19  4 12 21  1 18 31  4 30 52  5 53 90  10 73 122
13 66 103  5 32 55  1 7 19  0 0 0  0 0 0  0 0 0
0 0 0  0 0 0  0 0 0  0 0 0  0 0 0  0 0 0
0 0 0  0 0 0  0 2 0  2 2 4  4 22 37  11 90 150
23 150 203  6 4 7  4 3 6  11 45 67  27 146 180  18 146 217
9 114 188  7 70 125  9 62 101  5 53 90  9 59 97  9 62 101
12 65 106  16 60 91  16 60 91  11 45 67  4 30 52  4 22 37
0 15 30  2 13 24  1 4 10  1 4 10  1 7 19  4 24 41
5 41 71  5 47 81  5 53 90  7 70 125  18 83 135  21 81 125
15 56 87  5 37 63  1 10 21  0 0 0  0 0 0  0 0 0
0 0 0  0 0 0  0 0 0  0 0 0  0 0 0  0 0 0
0 0 0  0 0 0  1 1 1  0 0 0  2 8 17  9 60 100
18 146 217  20 75 99  4 2 6  1 2 4  4 2 3  20 75 99
18 115 164  16 114 180  19 100 159  21 95 149  18 87 131  19 78 121
20 75 99  18 83 135  7 70 125  11 63 109  5 53 90  5 47 81
5 41 71  6 29 48  4 18 30  2 8 17  4 24 41  15 56 87
21 81 125  21 81 125  19 100 159  21 95 149  20 117 175  21 81 125
12 68 111  5 32 55  2 8 17  1 0 0  0 0 0  0 0 0
0 0 0  0 0 0  0 0 0  0 0 0  0 0 0  0 0 0
0 0 0  0 0 0  0 0 0  0 0 0  2 2 4  5 32 55
9 114 188  25 142 187  4 5 6  1 1 1  1 1 1  20 86 121
25 183 213  25 165 197  20 160 192  27 146 180  19 135 198  18 146 217
10 128 195  9 114 188  11 90 150  13 84 138  19 78 121  20 75 99
15 56 87  11 45 67  3 19 33  0 15 30  4 38 67  18 83 135
23 109 157  25 126 171  20 119 182  19 135 198  21 81 125  16 81 129
5 53 90  2 15 28  1 2 6  1 1 1  0 0 0  0 0 0
0 0 0  0 0 0  0 0 0  0 0 0  0 0 0  0 0 0
0 0 0  0 0 0  0 0 0  0 0 0  2 2 2  2 8 17
9 60 100  18 146 217  20 86 121  4 5 6  4 5 6  6 4 4
11 54 80  25 127 161  25 165 197  25 183 213  21 178 208  25 151 208
17 131 194  21 95 149  19 78 121  19 78 121  15 72 117  9 74 119
11 63 109  5 53 90  4 38 67  5 47 81  13 84 138  21 95 149
24 135 188  25 151 208  25 126 171  21 81 125  13 84 138  5 46 79
4 18 30  3 6 12  0 0 0  1 1 1  0 0 0  0 0 0
0 0 0  0 0 0  0 0 0  0 0 0  0 0 0  0 0 0
0 0 0  0 0 2  0 0 0  0 0 2  1 1 1  1 2 6
4 26 45  11 90 150  18 146 217  11 45 67  11 45 67  15 102 143
7 24 39  6 4 4  6 4 4  11 45 67  25 127 161  20 160 192
23 162 199  20 168 215  18 146 217  18 146 217  10 128 195  9 114 188
13 103 164  13 103 164  13 103 164  9 114 188  14 132 199  18 146 217
20 118 167  15 72 117  15 90 146  6 76 123  5 41 71  2 15 28
4 2 6  0 0 2  0 0 0  0 0 0  0 0 0  0 0 0
0 0 0  0 0 0  0 0 0  0 0 0  0 0 0  0 0 0
0 0 0  0 0 0  0 0 0  0 0 0  0 0 0  0 0 0
4 5 9  4 38 67  9 114 188  25 144 192  5 39 63  21 193 218
23 200 231  25 127 161  5 21 31  7 24 39  20 86 121  25 127 161
27 146 180  22 171 205  20 168 215  18 146 217  18 146 217  18 146 217
19 135 198  16 114 180  18 102 160  21 95 149  20 75 99  13 66 103
11 90 150  11 90 150  9 60 100  4 30 52  2 13 24  0 1 5
2 2 4  0 2 1  0 0 0  0 0 0  0 0 0  0 0 0
0 0 0  0 0 0  0 0 0  0 0 0  0 0 0  0 0 0
0 0 0  1 0 0  0 0 0  0 0 0  0 0 0  0 0 0
1 1 1  1 7 19  5 47 81  13 103 164  9 114 188  11 64 94
21 190 220  18 212 241  21 178 208  13 57 84  6 4 4  20 75 99
20 86 121  8 50 76  5 32 47  4 28 47  6 29 48  4 22 37
5 33 57  12 65 106  13 84 138  15 100 162  15 100 162  15 100 162
7 70 125  5 41 71  4 19 35  2 6 11  2 1 5  0 0 0
0 0 0  0 0 0  0 0 0  0 0 0  0 0 0  0 0 0
0 0 0  0 0 0  0 0 0  0 0 0  0 0 0  0 0 0
0 0 0  0 0 0  0 0 0  0 0 0  0 0 0  0 0 0
1 1 1  4 3 4  2 13 24  5 41 71  11 90 150  15 100 162
15 56 87  22 148 198  19 181 233  20 197 231  22 141 171  5 33 57
15 102 143  21 193 218  18 212 241  19 181 233  18 146 217  18 146 217
18 146 217  9 114 188  13 103 164  13 84 138  9 60 100  5 41 71
4 24 41  2 8 17  1 1 1  1 1 1  1 1 1  1 1 1
0 0 0  0 0 0  0 0 0  0 0 0  0 0 0  0 0 0
0 0 0  0 0 0  0 0 0  0 0 0  0 0 0  0 0 0
0 0 0  0 0 0  0 0 0  0 0 0  0 0 0  0 0 0
0 0 0  1 1 1  0 1 3  1 10 21  1 36 65  7 70 125
14 97 152  13 66 103  11 90 150  18 146 217  19 181 233  20 168 215
18 115 164  11 54 80  21 121 164  18 146 217  14 132 199  9 114 188
11 90 150  12 69 113  5 53 90  5 32 55  2 15 28  2 6 11
1 1 1  0 0 0  0 0 0  0 0 0  0 0 0  0 0 0
0 0 0  0 0 0  0 0 0  0 0 0  0 0 0  0 0 0
0 0 0  0 0 0  0 0 0  0 0 0  0 0 0  0 0 0
0 0 0  0 0 0  0 0 0  0 0 0  0 0 0  0 0 0
0 0 0  0 0 0  0 0 0  1 1 1  2 8 17  4 26 45
9 59 97  13 84 138  15 72 117  11 63 109  14 97 152  9 114 188
10 128 195  9 114 188  11 90 150  16 60 91  16 60 91  13 68 108
13 66 103  10 49 79  5 39 63  3 14 24  0 1 5  0 0 0
1 2 4  0 0 0  0 0 0  0 0 0  0 0 0  0 0 0
0 0 0  0 0 0  0 0 0  0 0 0  0 0 0  0 0 0
0 0 0  0 0 0  0 0 0  0 0 0  0 0 0  0 0 0
0 0 0  0 0 0  0 0 0  0 0 0  0 0 0  0 0 0
0 0 0  0 0 0  0 1 0  0 0 0  0 0 0  1 4 10
2 15 28  4 30 52  5 47 81  9 60 100  11 53 87  10 49 79
9 59 97  11 63 109  12 69 113  7 70 125  11 63 109  9 60 100
9 52 88  5 38 66  6 29 48  3 16 27  1 2 6  0 0 0
0 0 0  0 0 0  0 0 0  0 0 0  0 0 0  0 0 0
0 0 0  0 0 0  0 0 0  0 0 0  0 0 0  0 0 0
0 0 0  0 0 0  0 0 0  0 0 0  0 0 0  0 0 0
0 0 0  0 0 0  0 0 0  0 0 0  0 0 0  0 0 0
0 0 0  0 0 0  0 0 0  0 0 0  0 0 0  0 0 0
0 2 1  4 5 9  3 14 24  4 26 45  4 30 52  4 30 52
4 24 41  3 19 33  4 22 37  4 26 45  4 30 52  5 32 55
5 32 55  4 29 49  0 15 30  2 8 17  1 2 4  0 0 0
1 0 0  0 0 0  0 0 0  0 0 0  0 0 0  0 0 0
0 0 0  0 0 0  0 0 0  0 0 0  0 0 0  0 0 0
0 0 0  0 0 0  0 0 0  0 0 0  0 0 0  0 0 0
0 0 0  0 0 0  0 0 0  0 0 0  0 0 0  0 0 0
0 0 0  0 0 0  1 1 1  0 0 0  0 0 0  0 1 3
0 0 0  0 0 0  0 1 0  1 2 6  1 4 10  3 7 13
4 5 9  2 1 5  0 0 0  0 0 2  2 3 6  4 5 9
1 4 10  1 4 10  1 4 10  0 1 3  1 1 1  0 0 0
0 0 0  0 0 0  0 0 0  0 0 0  0 0 0  0 0 0
0 0 0  0 0 0  0 0 0  0 0 0  0 0 0  0 0 0
0 0 0  0 0 0  0 0 0  0 0 0  0 0 0  0 0 0
0 0 0  0 0 0  0 0 0  0 0 0  0 0 0  0 0 0
0 0 0  0 0 0  0 0 0  0 0 0  0 0 0  0 0 0
0 0 0  0 0 0  0 0 0  0 0 0  1 1 3  2 2 4
1 1 3  0 0 2  1 1 1  0 0 2  1 1 3  1 1 1
0 1 3  0 1 3  0 0 0  0 0 0  1 0 0  0 0 0
0 0 0  0 0 0  0 0 0  0 0 0  0 0 0  0 0 0
0 0 0  0 0 0  0 0 0  0 0 0  0 0 0  0 0 0
0 0 0  0 0 0  0 0 0  0 0 0  0 0 0  0 0 0
0 0 0  0 0 0  0 0 0  0 0 0  0 0 0  0 0 0
0 0 0  0 0 0  0 0 0  0 0 0  0 0 0  0 0 0
0 0 0  0 0 0  0 0 0  0 0 0  0 0 0  0 0 0
0 0 0  0 0 0  0 0 0  0 0 0  0 0 0  0 0 0
0 0 0  0 0 0  0 0 0  0 0 0  1 1 1  1 1 1
0 0 0  0 1 0  0 0 0  0 0 0  0 0 0  0 0 0
0 0 0  0 0 0  0 0 0  0 0 0  0 0 0  0 0 0
0 0 0  0 0 0  0 0 0  0 0 0  0 0 0  0 0 0
